<svg width="12" height="8" viewBox="0 0 12 8" fill="none" xmlns="http://www.w3.org/2000/svg">
<path d="M0.732911 1.0001C0.916245 0.816764 1.14958 0.725098 1.43291 0.725098C1.71624 0.725098 1.94958 0.816764 2.13291 1.0001L6.03291 4.9001L9.93291 1.0001C10.1162 0.816764 10.3496 0.725098 10.6329 0.725098C10.9162 0.725098 11.1496 0.816764 11.3329 1.0001C11.5162 1.18343 11.6079 1.41676 11.6079 1.7001C11.6079 1.98343 11.5162 2.21676 11.3329 2.4001L6.73291 7.0001C6.63291 7.1001 6.52458 7.1711 6.40791 7.2131C6.29124 7.25443 6.16624 7.2751 6.03291 7.2751C5.89958 7.2751 5.77458 7.25443 5.65791 7.2131C5.54124 7.1711 5.43291 7.1001 5.33291 7.0001L0.732911 2.4001C0.549578 2.21676 0.45791 1.98343 0.45791 1.7001C0.45791 1.41676 0.549578 1.18343 0.732911 1.0001Z" fill="url(#paint0_linear_227_1376)"/>
<defs>
<linearGradient id="paint0_linear_227_1376" x1="0.792741" y1="2.22298" x2="7.90067" y2="9.2088" gradientUnits="userSpaceOnUse">
<stop stop-color="#00D57D"/>
<stop offset="0.01" stop-color="#00D47F"/>
<stop offset="0.35" stop-color="#00B9B6"/>
<stop offset="0.63" stop-color="#00A6DE"/>
<stop offset="0.86" stop-color="#009AF6"/>
<stop offset="1" stop-color="#0096FF"/>
</linearGradient>
</defs>
</svg>
