<svg width="28" height="28" viewBox="0 0 28 28" fill="none" xmlns="http://www.w3.org/2000/svg">
<path d="M12.1334 16.4001L9.23341 13.5001C8.98897 13.2556 8.68364 13.1392 8.31741 13.1507C7.9503 13.1614 7.64453 13.289 7.40008 13.5334C7.15564 13.7779 7.03341 14.089 7.03341 14.4667C7.03341 14.8445 7.15564 15.1556 7.40008 15.4001L11.2001 19.2001C11.4445 19.4445 11.7556 19.5667 12.1334 19.5667C12.5112 19.5667 12.8223 19.4445 13.0667 19.2001L20.6334 11.6334C20.8779 11.389 20.9947 11.0832 20.9841 10.7161C20.9725 10.3499 20.8445 10.0445 20.6001 9.80008C20.3556 9.55564 20.0445 9.43341 19.6667 9.43341C19.289 9.43341 18.9779 9.55564 18.7334 9.80008L12.1334 16.4001ZM14.0001 27.3334C12.1556 27.3334 10.4223 26.9832 8.80008 26.2827C7.17786 25.5832 5.76675 24.6334 4.56675 23.4334C3.36675 22.2334 2.41697 20.8223 1.71741 19.2001C1.01697 17.5779 0.666748 15.8445 0.666748 14.0001C0.666748 12.1556 1.01697 10.4223 1.71741 8.80008C2.41697 7.17786 3.36675 5.76675 4.56675 4.56675C5.76675 3.36675 7.17786 2.41653 8.80008 1.71608C10.4223 1.01653 12.1556 0.666748 14.0001 0.666748C15.8445 0.666748 17.5779 1.01653 19.2001 1.71608C20.8223 2.41653 22.2334 3.36675 23.4334 4.56675C24.6334 5.76675 25.5832 7.17786 26.2827 8.80008C26.9832 10.4223 27.3334 12.1556 27.3334 14.0001C27.3334 15.8445 26.9832 17.5779 26.2827 19.2001C25.5832 20.8223 24.6334 22.2334 23.4334 23.4334C22.2334 24.6334 20.8223 25.5832 19.2001 26.2827C17.5779 26.9832 15.8445 27.3334 14.0001 27.3334ZM14.0001 24.6667C16.9556 24.6667 19.4725 23.6281 21.5507 21.5507C23.6281 19.4725 24.6667 16.9556 24.6667 14.0001C24.6667 11.0445 23.6281 8.52764 21.5507 6.44941C19.4725 4.37208 16.9556 3.33341 14.0001 3.33341C11.0445 3.33341 8.52808 4.37208 6.45075 6.44941C4.37253 8.52764 3.33341 11.0445 3.33341 14.0001C3.33341 16.9556 4.37253 19.4725 6.45075 21.5507C8.52808 23.6281 11.0445 24.6667 14.0001 24.6667Z" fill="url(#paint0_linear_204_12888)"/>
<defs>
<linearGradient id="paint0_linear_204_12888" x1="6.76498" y1="26.5326" x2="21.2363" y2="1.46766" gradientUnits="userSpaceOnUse">
<stop stop-color="#00D57D"/>
<stop offset="0.01" stop-color="#00D47F"/>
<stop offset="0.35" stop-color="#00B9B6"/>
<stop offset="0.63" stop-color="#00A6DE"/>
<stop offset="0.86" stop-color="#009AF6"/>
<stop offset="1" stop-color="#0096FF"/>
</linearGradient>
</defs>
</svg>
