<svg width="14" height="14" viewBox="0 0 14 14" fill="none" xmlns="http://www.w3.org/2000/svg">
<path d="M7.66659 7.11665L9.16659 8.61665C9.28881 8.73887 9.34992 8.89176 9.34992 9.07531C9.34992 9.25842 9.28881 9.41665 9.16659 9.54998C9.03325 9.68331 8.87503 9.74998 8.69192 9.74998C8.50836 9.74998 8.34992 9.68331 8.21659 9.54998L6.79992 8.13331C6.64436 7.97776 6.5277 7.80554 6.44992 7.61665C6.37214 7.42776 6.33325 7.2222 6.33325 6.99998V4.99998C6.33325 4.81109 6.39725 4.65265 6.52525 4.52465C6.65281 4.39709 6.81103 4.33331 6.99992 4.33331C7.18881 4.33331 7.34725 4.39709 7.47525 4.52465C7.60281 4.65265 7.66659 4.81109 7.66659 4.99998V7.11665ZM6.99992 1.66665C7.18881 1.66665 7.34725 1.73042 7.47525 1.85798C7.60281 1.98598 7.66659 2.14442 7.66659 2.33331C7.66659 2.5222 7.60281 2.68065 7.47525 2.80865C7.34725 2.9362 7.18881 2.99998 6.99992 2.99998C6.81103 2.99998 6.65281 2.9362 6.52525 2.80865C6.39725 2.68065 6.33325 2.5222 6.33325 2.33331C6.33325 2.14442 6.39725 1.98598 6.52525 1.85798C6.65281 1.73042 6.81103 1.66665 6.99992 1.66665ZM12.3333 6.99998C12.3333 7.18887 12.2693 7.34709 12.1413 7.47465C12.0137 7.60265 11.8555 7.66665 11.6666 7.66665C11.4777 7.66665 11.3195 7.60265 11.1919 7.47465C11.0639 7.34709 10.9999 7.18887 10.9999 6.99998C10.9999 6.81109 11.0639 6.65265 11.1919 6.52465C11.3195 6.39709 11.4777 6.33331 11.6666 6.33331C11.8555 6.33331 12.0137 6.39709 12.1413 6.52465C12.2693 6.65265 12.3333 6.81109 12.3333 6.99998ZM6.99992 11C7.18881 11 7.34725 11.064 7.47525 11.192C7.60281 11.3195 7.66659 11.4778 7.66659 11.6666C7.66659 11.8555 7.60281 12.0138 7.47525 12.1413C7.34725 12.2693 7.18881 12.3333 6.99992 12.3333C6.81103 12.3333 6.65281 12.2693 6.52525 12.1413C6.39725 12.0138 6.33325 11.8555 6.33325 11.6666C6.33325 11.4778 6.39725 11.3195 6.52525 11.192C6.65281 11.064 6.81103 11 6.99992 11ZM2.99992 6.99998C2.99992 7.18887 2.93614 7.34709 2.80859 7.47465C2.68059 7.60265 2.52214 7.66665 2.33325 7.66665C2.14436 7.66665 1.98592 7.60265 1.85792 7.47465C1.73036 7.34709 1.66659 7.18887 1.66659 6.99998C1.66659 6.81109 1.73036 6.65265 1.85792 6.52465C1.98592 6.39709 2.14436 6.33331 2.33325 6.33331C2.52214 6.33331 2.68059 6.39709 2.80859 6.52465C2.93614 6.65265 2.99992 6.81109 2.99992 6.99998ZM6.99992 13.6666C6.0777 13.6666 5.21103 13.4915 4.39992 13.1413C3.58881 12.7915 2.88325 12.3166 2.28325 11.7166C1.68325 11.1166 1.20836 10.4111 0.858585 9.59998C0.508363 8.78887 0.333252 7.9222 0.333252 6.99998C0.333252 6.07776 0.508363 5.21109 0.858585 4.39998C1.20836 3.58887 1.68325 2.88331 2.28325 2.28331C2.88325 1.68331 3.58881 1.2082 4.39992 0.85798C5.21103 0.508202 6.0777 0.333313 6.99992 0.333313C7.92214 0.333313 8.78881 0.508202 9.59992 0.85798C10.411 1.2082 11.1166 1.68331 11.7166 2.28331C12.3166 2.88331 12.7915 3.58887 13.1413 4.39998C13.4915 5.21109 13.6666 6.07776 13.6666 6.99998C13.6666 7.9222 13.4915 8.78887 13.1413 9.59998C12.7915 10.4111 12.3166 11.1166 11.7166 11.7166C11.1166 12.3166 10.411 12.7915 9.59992 13.1413C8.78881 13.4915 7.92214 13.6666 6.99992 13.6666ZM6.99992 12.3333C8.48881 12.3333 9.74992 11.8166 10.7833 10.7833C11.8166 9.74998 12.3333 8.48887 12.3333 6.99998C12.3333 5.51109 11.8166 4.24998 10.7833 3.21665C9.74992 2.18331 8.48881 1.66665 6.99992 1.66665C5.51103 1.66665 4.24992 2.18331 3.21659 3.21665C2.18325 4.24998 1.66659 5.51109 1.66659 6.99998C1.66659 8.48887 2.18325 9.74998 3.21659 10.7833C4.24992 11.8166 5.51103 12.3333 6.99992 12.3333Z" fill="#0096FF"/>
</svg>
