<svg width="20" height="12" viewBox="0 0 20 12" fill="none" xmlns="http://www.w3.org/2000/svg">
<path d="M0.700003 11.3C0.51667 11.1167 0.425003 10.8873 0.425003 10.612C0.425003 10.3373 0.51667 10.1 0.700003 9.9L6.7 3.85C6.8 3.76667 6.90834 3.7 7.025 3.65C7.14167 3.6 7.26667 3.575 7.4 3.575C7.53334 3.575 7.66267 3.6 7.788 3.65C7.91267 3.7 8.01667 3.76667 8.1 3.85L11.4 7.15L16.6 2H15C14.7167 2 14.4793 1.90433 14.288 1.713C14.096 1.521 14 1.28333 14 1C14 0.716667 14.096 0.479 14.288 0.287C14.4793 0.0956668 14.7167 0 15 0H19C19.2833 0 19.5207 0.0956668 19.712 0.287C19.904 0.479 20 0.716667 20 1V5C20 5.28333 19.904 5.52067 19.712 5.712C19.5207 5.904 19.2833 6 19 6C18.7167 6 18.4793 5.904 18.288 5.712C18.096 5.52067 18 5.28333 18 5V3.4L12.1 9.3C12 9.4 11.8917 9.47067 11.775 9.512C11.6583 9.554 11.5333 9.575 11.4 9.575C11.2667 9.575 11.1417 9.554 11.025 9.512C10.9083 9.47067 10.8 9.4 10.7 9.3L7.4 6L2.075 11.325C1.89167 11.5083 1.66667 11.6 1.4 11.6C1.13334 11.6 0.900003 11.5 0.700003 11.3Z" fill="#FDFDFD"/>
</svg>
