<svg width="206" height="40" viewBox="0 0 206 40" fill="none" xmlns="http://www.w3.org/2000/svg">
<g clip-path="url(#clip0_221_1344)">
<path d="M63.2998 10.525C63.2998 7.38743 65.7651 4.94458 68.9209 4.94458C72.0768 4.94458 74.3586 7.42937 74.3586 10.8305V11.6453H66.6804C67.1082 12.6634 68.0856 13.3559 69.3282 13.3559C70.2246 13.3559 70.9777 13.0707 71.487 12.5411L73.6661 14.4759C72.3015 15.6166 70.9572 16.1042 69.1652 16.1042C65.8659 16.1042 63.2998 13.6614 63.2998 10.525ZM71.1205 9.34363C70.774 8.30502 69.9189 7.633 68.8595 7.633C67.7597 7.633 66.9452 8.26404 66.6183 9.34363H71.1205Z" fill="#FDFDFD"/>
<path d="M75.9067 5.1277H79.206V5.86087C80.0003 5.24968 80.9989 4.92407 82.0981 4.92407C84.6235 4.92407 86.3953 6.71699 86.3953 9.26197V15.9015H83.0976V9.7102C83.0976 8.52912 82.3238 7.75496 81.1424 7.75496C80.3074 7.75496 79.6555 8.0604 79.2076 8.61044V15.9015H75.9067V5.1277Z" fill="#FDFDFD"/>
<path d="M87.8628 10.5045C87.8628 7.40888 90.3281 4.98524 93.4634 4.98524C94.4614 4.98524 95.3982 5.22985 96.2127 5.69793V1.64497L99.5123 1.13623V15.9016H96.2536V15.1072C95.4147 15.7209 94.401 16.0493 93.3616 16.0443C90.2864 16.0443 87.8628 13.6002 87.8628 10.5045ZM96.2127 12.3781V8.61046C95.6425 8.08091 94.828 7.77547 93.9318 7.77547C92.3227 7.77547 91.1006 8.95688 91.1006 10.5045C91.1006 12.0522 92.3432 13.2336 93.9318 13.2336C94.8481 13.2336 95.622 12.9487 96.2127 12.3781Z" fill="#FDFDFD"/>
<path d="M101.061 10.525C101.061 7.38743 103.526 4.94458 106.682 4.94458C109.838 4.94458 112.119 7.42937 112.119 10.8305V11.6453H104.441C104.869 12.6634 105.847 13.3559 107.089 13.3559C107.986 13.3559 108.739 13.0707 109.248 12.5411L111.427 14.4759C110.063 15.6166 108.718 16.1042 106.926 16.1042C103.627 16.1042 101.061 13.6614 101.061 10.525ZM108.882 9.34363C108.535 8.30502 107.68 7.633 106.621 7.633C105.521 7.633 104.706 8.26404 104.379 9.34363H108.882Z" fill="#FDFDFD"/>
<path d="M113.667 5.12777H116.967V5.82029C117.72 5.2299 118.637 4.92383 119.656 4.92383C121.001 4.92383 122.121 5.47355 122.854 6.41067C123.729 5.45338 124.931 4.92383 126.357 4.92383C128.801 4.92383 130.532 6.71675 130.532 9.26173V15.9016H127.233V9.71028C127.233 8.52919 126.54 7.75504 125.481 7.75504C124.748 7.75504 124.137 8.0403 123.709 8.56954C123.73 8.79365 123.75 9.01776 123.75 9.26205V15.9016H120.45V9.71028C120.45 8.52919 119.757 7.75504 118.698 7.75504C117.965 7.75504 117.374 8.01981 116.967 8.52919V15.9016H113.667V5.12777Z" fill="#FDFDFD"/>
<path d="M131.999 10.525C131.999 7.38743 134.464 4.94458 137.62 4.94458C140.776 4.94458 143.057 7.42937 143.057 10.8305V11.6453H135.379C135.807 12.6634 136.784 13.3559 138.027 13.3559C138.923 13.3559 139.676 13.0707 140.185 12.5411L142.365 14.4759C141 15.6166 139.656 16.1042 137.863 16.1042C134.565 16.1042 131.999 13.6614 131.999 10.525ZM139.819 9.34363C139.473 8.30502 138.618 7.633 137.558 7.633C136.458 7.633 135.644 8.26404 135.317 9.34363H139.819Z" fill="#FDFDFD"/>
<path d="M144.605 5.1277H147.905V5.86087C148.699 5.24968 149.698 4.92407 150.797 4.92407C153.322 4.92407 155.094 6.71699 155.094 9.26197V15.9015H151.794V9.7102C151.794 8.52912 151.021 7.75496 149.84 7.75496C149.005 7.75496 148.353 8.0604 147.905 8.61044V15.9015H144.605V5.1277Z" fill="#FDFDFD"/>
<path d="M158.272 12.6228V7.87605H156.092V5.12776H158.272V2.35802L161.571 1.64502V5.12776H164.585V7.87605H161.571V11.9709C161.571 12.9282 161.938 13.2743 162.996 13.2743C163.526 13.2743 163.933 13.2132 164.483 13.0502V15.7201C163.872 15.9032 162.813 16.046 162.182 16.046C159.595 16.0444 158.272 14.8832 158.272 12.6228Z" fill="#FDFDFD"/>
<path d="M90.3672 21.385H97.4345C100.348 21.385 102.383 23.0348 102.383 25.397C102.383 26.5784 101.752 27.617 100.754 28.33C102.017 29.0023 102.831 30.1425 102.831 31.4462C102.831 33.9511 100.795 35.6403 97.7806 35.6403H90.3672V21.385ZM97.2104 27.0673C98.2288 27.0673 98.8803 26.5172 98.8803 25.6621C98.8803 24.8069 98.2288 24.2569 97.2104 24.2569H93.8701V27.0673H97.2104ZM97.5158 32.77C98.5954 32.77 99.2876 32.1793 99.2876 31.2627C99.2876 30.3461 98.5954 29.7557 97.5158 29.7557H93.8701V32.77H97.5158Z" fill="#FDFDFD"/>
<path d="M50.4473 1.64502H57.7387C60.6714 1.64502 62.7691 3.53943 62.7691 6.18686C62.7691 7.97978 61.7103 9.46566 60.1012 10.1992L63.2173 15.9016H59.3068L56.6175 10.7082H53.9492V15.9016H50.4473V1.64502ZM57.4128 7.8562C58.4923 7.8562 59.2255 7.20467 59.2255 6.24738C59.2255 5.29009 58.4923 4.63855 57.4128 4.63855H53.9505V7.85684L57.4128 7.8562Z" fill="#FDFDFD"/>
<path d="M50.4473 24.8674H53.7469V25.5603C54.5002 24.9693 55.4165 24.6638 56.4363 24.6638C57.7809 24.6638 58.9015 25.2139 59.6337 26.1507C60.5097 25.1934 61.7116 24.6638 63.137 24.6638C65.5811 24.6638 67.3122 26.4567 67.3122 29.002V35.6416H64.0145V29.4503C64.0145 28.2689 63.3217 27.4947 62.2629 27.4947C61.5297 27.4947 60.9182 27.78 60.4911 28.3095C60.5113 28.5336 60.5315 28.7578 60.5315 29.002V35.6416H57.2338V29.4503C57.2338 28.2689 56.5413 27.4947 55.4825 27.4947C54.7493 27.4947 54.1586 27.7598 53.7514 28.2689V35.6416H50.4473V24.8674Z" fill="#FDFDFD"/>
<path d="M68.7783 30.2648C68.7783 27.1272 71.2436 24.6843 74.3994 24.6843C77.5553 24.6843 79.8371 27.1688 79.8371 30.5702V31.3847H72.1593C72.587 32.4032 73.5645 33.0957 74.807 33.0957C75.7035 33.0957 76.4565 32.8104 76.9656 32.2812L79.1446 34.2156C77.7804 35.3563 76.436 35.8452 74.6437 35.8452C71.3444 35.8452 68.7783 33.4011 68.7783 30.2648ZM76.599 29.0834C76.2529 28.0464 75.3987 27.374 74.3383 27.374C73.2385 27.374 72.4237 28.0057 72.0971 29.085L76.599 29.0834Z" fill="#FDFDFD"/>
<path d="M82.6076 32.3625V27.617H80.4282V24.8674H82.6076V22.0977L85.9069 21.385V24.8674H88.9212V27.617H85.9069V31.7106C85.9069 32.6679 86.2735 33.014 87.3322 33.014C87.8621 33.014 88.2694 32.9532 88.8194 32.7899V35.4581C88.2082 35.6416 87.1491 35.7841 86.5181 35.7841C83.9311 35.7841 82.6076 34.6231 82.6076 32.3625Z" fill="#FDFDFD"/>
<path d="M103.871 30.2648C103.871 27.1272 106.336 24.6843 109.492 24.6843C112.648 24.6843 114.93 27.1688 114.93 30.5702V31.3847H107.252C107.679 32.4032 108.657 33.0957 109.899 33.0957C110.796 33.0957 111.549 32.8104 112.058 32.2812L114.237 34.2156C112.873 35.3563 111.529 35.8452 109.736 35.8452C106.437 35.8452 103.871 33.4011 103.871 30.2648ZM111.692 29.0834C111.345 28.0464 110.49 27.374 109.432 27.374C108.332 27.374 107.517 28.0057 107.191 29.085L111.692 29.0834Z" fill="#FDFDFD"/>
<path d="M116.478 21.3851L119.777 20.8748V35.6407H116.478V21.3851Z" fill="#FDFDFD"/>
<path d="M121.326 30.2648C121.326 27.1272 123.791 24.6843 126.947 24.6843C130.103 24.6843 132.384 27.1688 132.384 30.5702V31.3847H124.706C125.134 32.4032 126.112 33.0957 127.354 33.0957C128.251 33.0957 129.004 32.8104 129.513 32.2812L131.692 34.2156C130.328 35.3563 128.983 35.8452 127.191 35.8452C123.892 35.8452 121.326 33.4011 121.326 30.2648ZM129.146 29.0834C128.8 28.0464 127.945 27.374 126.886 27.374C125.786 27.374 124.971 28.0057 124.644 29.085L129.146 29.0834Z" fill="#FDFDFD"/>
<path d="M134.931 39.0633L136.03 36.4969C137.191 37.0469 138.332 37.3114 139.472 37.3114C141.02 37.3114 141.814 36.6803 141.814 35.4378V34.8269C140.991 35.3856 140.019 35.6836 139.024 35.6824C135.97 35.6824 133.546 33.2587 133.546 30.1833C133.546 27.1286 136.011 24.7251 139.147 24.7251C140.124 24.7251 141.061 24.9694 141.855 25.4381V24.8676H145.114V35.4788C145.114 38.3923 143.138 40.0001 139.533 40.0001C137.802 40.0001 136.214 39.6742 134.931 39.0633ZM141.814 32.118V28.3097C141.244 27.8208 140.469 27.5153 139.615 27.5153C138.026 27.5153 136.783 28.6762 136.783 30.1833C136.783 31.7312 138.005 32.9123 139.594 32.9123C140.491 32.913 141.244 32.6479 141.814 32.118H141.814Z" fill="#FDFDFD"/>
<path d="M148.047 39.0633L149.147 36.4969C150.308 37.0469 151.448 37.3114 152.589 37.3114C154.137 37.3114 154.931 36.6803 154.931 35.4378V34.8269C154.108 35.3853 153.136 35.6834 152.142 35.6824C149.087 35.6824 146.664 33.2587 146.664 30.1833C146.664 27.1286 149.129 24.7251 152.264 24.7251C153.242 24.7251 154.179 24.9694 154.973 25.4381V24.8676H158.231V35.4788C158.231 38.3923 156.256 40.0001 152.651 40.0001C150.919 40.0001 149.33 39.6742 148.047 39.0633ZM154.931 32.118V28.3097C154.36 27.8208 153.586 27.5153 152.731 27.5153C151.142 27.5153 149.9 28.6762 149.9 30.1833C149.9 31.7312 151.122 32.9123 152.71 32.9123C153.607 32.913 154.361 32.6479 154.931 32.118H154.931Z" fill="#FDFDFD"/>
<path d="M159.779 30.2648C159.779 27.1272 162.244 24.6843 165.4 24.6843C168.556 24.6843 170.838 27.1688 170.838 30.5702V31.3847H163.16C163.587 32.4032 164.565 33.0957 165.808 33.0957C166.704 33.0957 167.457 32.8104 167.966 32.2812L170.145 34.2156C168.781 35.3563 167.436 35.8452 165.644 35.8452C162.345 35.8452 159.779 33.4011 159.779 30.2648ZM167.6 29.0834C167.254 28.0464 166.398 27.374 165.339 27.374C164.239 27.374 163.424 28.0057 163.098 29.085L167.6 29.0834Z" fill="#FDFDFD"/>
<path d="M172.386 24.8674H175.685V25.6006C176.479 24.9897 177.478 24.6638 178.577 24.6638C181.103 24.6638 182.874 26.4567 182.874 29.002V35.6416H179.577V29.4503C179.577 28.2689 178.803 27.4947 177.622 27.4947C176.786 27.4947 176.135 27.8001 175.687 28.3505V35.6416H172.386V24.8674Z" fill="#FDFDFD"/>
<path d="M184.464 33.9717C184.464 33.5971 184.575 33.2309 184.783 32.9194C184.991 32.6079 185.287 32.3652 185.633 32.2218C185.979 32.0785 186.36 32.0409 186.727 32.114C187.095 32.1871 187.432 32.3675 187.697 32.6324C187.962 32.8973 188.143 33.2348 188.216 33.6022C188.289 33.9696 188.251 34.3505 188.108 34.6966C187.965 35.0427 187.722 35.3385 187.41 35.5466C187.099 35.7547 186.733 35.8658 186.358 35.8658C185.856 35.8634 185.376 35.663 185.021 35.3084C184.667 34.9537 184.466 34.4733 184.464 33.9717Z" fill="#FDFDFD"/>
<path d="M189.921 24.8674H193.221V25.6006C194.015 24.9897 195.014 24.6638 196.113 24.6638C198.638 24.6638 200.41 26.4567 200.41 29.002V35.6416H197.112V29.4503C197.112 28.2689 196.338 27.4947 195.156 27.4947C194.321 27.4947 193.67 27.8001 193.222 28.3505V35.6416H189.921V24.8674Z" fill="#FDFDFD"/>
<path d="M202.367 21.3851L205.666 20.8748V35.6407H202.367V21.3851Z" fill="#FDFDFD"/>
<path d="M19.741 0C8.48755 0 0 4.71473 0 10.9679V28.4459C0 28.4683 0 28.4904 0 28.5132C0 34.7653 8.48659 39.4797 19.74 39.4797C30.9432 39.4797 39.4042 34.8073 39.4794 28.5967C39.4794 28.5695 39.4794 28.542 39.4794 28.5144V10.9666C39.4807 4.71473 30.9944 0 19.741 0ZM19.741 4.38625C28.5282 4.38625 35.0941 7.86002 35.0941 10.9675V19.7167C35.0941 19.724 35.0941 19.7311 35.0941 19.7384C35.0941 21.3213 33.3973 22.9916 30.5705 24.2585L28.5855 20.8193C29.5826 20.5523 30.5637 20.2287 31.524 19.8502C32.0643 19.6336 32.4964 19.2113 32.7254 18.6762C32.9543 18.141 32.9613 17.5368 32.7448 16.9965C32.5282 16.4562 32.1059 16.0241 31.5708 15.7951C31.0356 15.5662 30.4314 15.5592 29.8911 15.7758C28.7927 16.2182 27.5818 16.5794 26.2941 16.8602L20.9752 7.64551C20.7833 7.31164 20.5067 7.03429 20.1734 6.84142C19.84 6.64856 19.4618 6.54701 19.0766 6.54701C18.6915 6.54701 18.3132 6.64856 17.9799 6.84142C17.6466 7.03429 17.37 7.31164 17.1781 7.64551L12.0234 16.5733C7.38938 15.3262 4.39969 13.0694 4.38625 10.9778V10.9666C4.38625 7.86034 10.9534 4.38625 19.741 4.38625ZM21.5928 17.4886C20.9787 17.5207 20.3643 17.545 19.7397 17.545C18.6624 17.545 17.6167 17.4922 16.613 17.3939L19.0782 13.1267L21.5928 17.4886ZM35.0932 28.5132C35.0932 31.6187 28.5272 35.0932 19.74 35.0932C10.9996 35.0932 4.45476 31.6552 4.38721 28.5618C4.38721 28.5461 4.38721 28.5298 4.38721 28.5148V18.0134C5.86925 19.0216 7.67945 19.8703 9.74483 20.5158L6.87456 25.4902C6.73054 25.7395 6.63703 26.0147 6.59938 26.3002C6.56173 26.5857 6.58068 26.8757 6.65514 27.1539C6.7296 27.432 6.85811 27.6928 7.03334 27.9212C7.20857 28.1497 7.42709 28.3414 7.67641 28.4855C8.17994 28.7763 8.7784 28.8553 9.34013 28.7049C9.90185 28.5545 10.3808 28.1871 10.6717 27.6836L14.2255 21.5281C16.0509 21.8004 17.8941 21.9351 19.7397 21.9312C21.1682 21.9308 22.5954 21.8477 24.0142 21.6821L26.2954 25.6301C24.3299 26.0613 22.1192 26.3175 19.7397 26.3175C18.3893 26.3191 17.0402 26.2347 15.7005 26.0649C15.4148 26.0278 15.1247 26.0473 14.8466 26.1224C14.5684 26.1975 14.3078 26.3266 14.0796 26.5023C13.6187 26.8573 13.3177 27.3809 13.2428 27.9578C13.2057 28.2435 13.2252 28.5337 13.3003 28.8118C13.3754 29.0899 13.5045 29.3505 13.6803 29.5788C13.856 29.807 14.075 29.9983 14.3248 30.1419C14.5745 30.2855 14.8501 30.3785 15.1357 30.4156C16.6627 30.6095 18.2005 30.7058 19.7397 30.7037C26.079 30.7037 31.5333 29.2098 35.0941 26.7865V28.4446C35.0935 28.4683 35.0932 28.4904 35.0932 28.5132Z" fill="url(#paint0_linear_221_1344)"/>
</g>
<defs>
<linearGradient id="paint0_linear_221_1344" x1="9.0283" y1="38.2942" x2="30.453" y2="1.18589" gradientUnits="userSpaceOnUse">
<stop stop-color="#00D57D"/>
<stop offset="0.01" stop-color="#00D47F"/>
<stop offset="0.35" stop-color="#00B9B6"/>
<stop offset="0.63" stop-color="#00A6DE"/>
<stop offset="0.86" stop-color="#009AF6"/>
<stop offset="1" stop-color="#0096FF"/>
</linearGradient>
<clipPath id="clip0_221_1344">
<rect width="205.666" height="40" fill="white"/>
</clipPath>
</defs>
</svg>
