<svg width="13" height="13" viewBox="0 0 13 13" fill="none" xmlns="http://www.w3.org/2000/svg">
<path fill-rule="evenodd" clip-rule="evenodd" d="M8.82805 1.34332C9.19505 0.976399 9.69031 0.7665 10.2092 0.757961C10.7281 0.749423 11.23 0.942911 11.6089 1.29756C11.9877 1.6522 12.2139 2.14023 12.2396 2.65855C12.2654 3.17687 12.0886 3.6849 11.7467 4.07532L11.6567 4.17132L11.1854 4.64265L11.6567 5.11465C11.8925 5.35056 12.0313 5.66626 12.0457 5.99948C12.0602 6.3327 11.9492 6.65923 11.7347 6.91465L11.6567 6.99998L8.82872 9.82865C8.70902 9.94949 8.54767 10.02 8.37769 10.0258C8.2077 10.0315 8.04194 9.97212 7.91433 9.85967C7.78672 9.74723 7.70692 9.59026 7.69125 9.4209C7.67558 9.25154 7.72524 9.0826 7.83005 8.94865L7.88539 8.88532L10.7141 6.05732L10.2427 5.58598L3.65739 12.1713C3.5757 12.253 3.47588 12.3142 3.36605 12.35L3.28272 12.372L0.955386 12.8373C0.853133 12.8579 0.747496 12.8544 0.646805 12.8272C0.546114 12.8 0.453123 12.7498 0.375165 12.6805C0.297207 12.6112 0.236414 12.5247 0.197579 12.4279C0.158745 12.3311 0.142931 12.2266 0.151385 12.1226L0.162719 12.0446L0.628052 9.71798C0.650667 9.60458 0.699781 9.49812 0.771385 9.40732L0.828719 9.34265L8.82872 1.34265L8.82805 1.34332ZM2.22939 9.82798L1.90072 10.1573L1.66472 11.3353L2.84339 11.1L3.17205 10.7713L2.22939 9.82798ZM8.35805 3.69998L3.17205 8.88532L4.11539 9.82865L9.30072 4.64265L8.35805 3.69998ZM10.7134 2.28665C10.5986 2.17187 10.4459 2.10291 10.2838 2.09272C10.1218 2.08254 9.96165 2.13182 9.83339 2.23132L9.77072 2.28665L9.29939 2.75798L10.2421 3.70065L10.7134 3.22932L10.7687 3.16665C10.8682 3.03838 10.9175 2.87821 10.9073 2.7162C10.8971 2.55418 10.8282 2.40145 10.7134 2.28665Z" fill="#0096FF"/>
</svg>
