<svg width="12" height="13" viewBox="0 0 12 13" fill="none" xmlns="http://www.w3.org/2000/svg">
<path d="M2.41333 5.69333C3.37333 7.58 4.92 9.12 6.80667 10.0867L8.27333 8.62C8.45333 8.44 8.72 8.38 8.95333 8.46C9.7 8.70667 10.5067 8.84 11.3333 8.84C11.7 8.84 12 9.14 12 9.50667V11.8333C12 12.2 11.7 12.5 11.3333 12.5C5.07333 12.5 0 7.42667 0 1.16667C0 0.8 0.3 0.5 0.666667 0.5H3C3.36667 0.5 3.66667 0.8 3.66667 1.16667C3.66667 2 3.8 2.8 4.04667 3.54667C4.12 3.78 4.06667 4.04 3.88 4.22667L2.41333 5.69333Z" fill="#0096FF"/>
</svg>
