<svg width="6" height="9" viewBox="0 0 6 9" fill="none" xmlns="http://www.w3.org/2000/svg">
<path d="M0.999983 8.23328C0.877761 8.11105 0.81665 7.9555 0.81665 7.76661C0.81665 7.57772 0.877761 7.42216 0.999983 7.29994L3.59998 4.69994L0.999983 2.09994C0.877761 1.97772 0.81665 1.82217 0.81665 1.63328C0.81665 1.44439 0.877761 1.28883 0.999983 1.16661C1.12221 1.04439 1.27776 0.983276 1.46665 0.983276C1.65554 0.983276 1.81109 1.04439 1.93332 1.16661L4.99998 4.23328C5.06665 4.29994 5.11398 4.37217 5.14198 4.44994C5.16954 4.52772 5.18332 4.61105 5.18332 4.69994C5.18332 4.78883 5.16954 4.87217 5.14198 4.94994C5.11398 5.02772 5.06665 5.09994 4.99998 5.16661L1.93332 8.23328C1.81109 8.3555 1.65554 8.41661 1.46665 8.41661C1.27776 8.41661 1.12221 8.3555 0.999983 8.23328Z" fill="#0096FF"/>
</svg>
