<svg width="28" height="23" viewBox="0 0 28 23" fill="none" xmlns="http://www.w3.org/2000/svg">
<path d="M27.9466 2.99998C26.9199 3.46665 25.8132 3.77331 24.6666 3.91998C25.8399 3.21331 26.7466 2.09331 27.1732 0.746646C26.0666 1.41331 24.8399 1.87998 23.5466 2.14665C22.4932 0.99998 21.0132 0.333313 19.3332 0.333313C16.1999 0.333313 13.6399 2.89331 13.6399 6.05331C13.6399 6.50665 13.6932 6.94665 13.7866 7.35998C9.03989 7.11998 4.81322 4.83998 1.99989 1.38665C1.50656 2.22665 1.22656 3.21331 1.22656 4.25331C1.22656 6.23998 2.22656 7.99998 3.77322 8.99998C2.82656 8.99998 1.94656 8.73331 1.17322 8.33331V8.37331C1.17322 11.1466 3.14656 13.4666 5.75989 13.9866C4.92086 14.2163 4.04002 14.2482 3.18656 14.08C3.5487 15.2166 4.25794 16.2112 5.21458 16.9239C6.17122 17.6366 7.32715 18.0316 8.51989 18.0533C6.49806 19.6539 3.99188 20.5191 1.41322 20.5066C0.959889 20.5066 0.506556 20.48 0.0532227 20.4266C2.58656 22.0533 5.59989 23 8.82656 23C19.3332 23 25.1066 14.28 25.1066 6.71998C25.1066 6.46665 25.1066 6.22665 25.0932 5.97331C26.2132 5.17331 27.1732 4.15998 27.9466 2.99998Z" fill="#FDFDFD"/>
</svg>
